<svg width="28" height="28" viewBox="0 0 28 28" fill="none" xmlns="http://www.w3.org/2000/svg">
<path d="M14 -7.62939e-06C14.9665 -7.62939e-06 15.75 0.783494 15.75 1.74999V12.25H26.25C27.2165 12.25 28 13.0335 28 14C28 14.9665 27.2165 15.75 26.25 15.75H15.75V26.25C15.75 27.2165 14.9665 28 14 28C13.0335 28 12.25 27.2165 12.25 26.25V15.75H1.75C0.783502 15.75 0 14.9665 0 14C0 13.0335 0.783502 12.25 1.75 12.25H12.25V1.74999C12.25 0.783494 13.0335 -7.62939e-06 14 -7.62939e-06Z" fill="#2249E7"/>
</svg>
