<svg width="26" height="26" viewBox="0 0 26 26" fill="none" xmlns="http://www.w3.org/2000/svg">
<path d="M5.7029 1.05516C6.52769 0.551352 7.60475 0.811563 8.10856 1.63636L13.582 10.5969L22.5425 5.12355C23.3673 4.61973 24.4444 4.87995 24.9482 5.70474C25.452 6.52954 25.1918 7.60659 24.367 8.11041L15.4064 13.5838L20.8798 22.5444C21.3836 23.3692 21.1234 24.4462 20.2986 24.95C19.4738 25.4538 18.3968 25.1936 17.893 24.3688L12.4196 15.4083L3.45899 20.8817C2.63419 21.3855 1.55714 21.1253 1.05333 20.3005C0.549517 19.4757 0.809728 18.3986 1.63453 17.8948L10.5951 12.4214L5.1217 3.46083C4.61789 2.63603 4.8781 1.55898 5.7029 1.05516Z" fill="#2249E7"/>
</svg>
